<svg width="269" height="345" viewBox="0 0 269 345" fill="none" xmlns="http://www.w3.org/2000/svg">
<path fill-rule="evenodd" clip-rule="evenodd" d="M177.738 51.4905C182.346 46.0817 185.464 39.4532 184.943 32.0258C183.442 10.6253 153.651 15.3331 147.857 26.1343C142.062 36.9354 142.75 64.3333 150.24 66.2638C153.226 67.0337 159.589 65.1478 166.065 61.2446L162 90.0003H186L177.738 51.4905Z" fill="#B28B67"/>
<path fill-rule="evenodd" clip-rule="evenodd" d="M137.224 11.1608C137.721 9.41383 139.058 7.91809 140.86 7.47434C141.296 7.36671 141.748 7.32323 142.197 7.34136C142.358 7.34779 142.404 7.39429 142.479 7.28153C142.535 7.19793 142.536 6.99369 142.559 6.89545C142.631 6.58994 142.72 6.28824 142.831 5.99436C143.208 4.99201 143.841 4.10491 144.605 3.35763C146.033 1.95961 147.963 0.994757 149.968 0.820202C151.066 0.724715 152.155 0.903014 153.193 1.26001C153.73 1.44481 154.251 1.67492 154.758 1.92934C154.911 2.00591 155.406 2.38096 155.559 2.35666C155.729 2.32987 156.069 1.90917 156.207 1.80357C157.908 0.498212 160.009 -0.0150137 162.128 0.0003334C164.52 0.0183476 166.823 0.137871 168.818 1.59605C169.241 1.90477 169.643 2.24279 170.026 2.59866C170.228 2.78602 170.423 2.98041 170.609 3.18288C170.722 3.30503 170.831 3.42994 170.936 3.55819C171.115 3.7759 171.086 3.84742 171.337 3.69552C172.297 3.11222 173.409 2.83942 174.53 2.97713C175.195 3.05896 175.843 3.25873 176.458 3.52168C176.667 3.61119 177.151 3.96825 177.374 3.97173C177.596 3.97515 178.073 3.64416 178.301 3.56003C179.533 3.10552 180.86 2.99348 182.154 3.2035C183.489 3.42022 184.8 3.95282 185.931 4.6888C186.475 5.04284 186.95 5.4351 187.331 5.96152C187.496 6.18881 187.644 6.42924 187.831 6.63998C187.94 6.76338 188.156 6.89 188.215 7.04616C188.18 6.95265 189.675 6.37631 189.816 6.33947C190.568 6.14317 191.333 6.18297 192.069 6.42517C193.453 6.8806 194.643 7.90193 195.621 8.94907C196.123 9.48693 196.563 10.0815 196.936 10.7149C197.115 11.0183 197.279 11.3303 197.428 11.649C197.501 11.8034 197.549 11.9966 197.644 12.1357C197.768 12.3149 197.85 12.3183 198.073 12.3965C199.206 12.7932 200.238 13.4649 201.025 14.3724C201.82 15.2905 202.336 16.4212 202.552 17.6119C202.565 17.6821 202.573 17.9727 202.614 18.0107C202.67 18.063 202.898 18.0398 202.984 18.05C203.282 18.085 203.579 18.137 203.871 18.2063C204.41 18.3338 204.934 18.5215 205.43 18.767C207.364 19.7239 208.747 21.5178 209.424 23.5364C210.135 25.6549 210.122 28.0819 209.273 30.1608C209.136 30.4966 208.973 30.8226 208.781 31.1309C208.664 31.3201 208.626 31.3206 208.702 31.5192C208.787 31.7401 208.943 31.9548 209.044 32.1707C209.374 32.8751 209.604 33.6223 209.75 34.3854C209.989 35.6372 210.108 36.9526 209.872 38.2139C209.762 38.7996 209.572 39.3721 209.281 39.8937C209.132 40.1597 208.958 40.412 208.762 40.6453C208.661 40.7665 208.553 40.8822 208.439 40.993C208.375 41.0563 208.29 41.1118 208.235 41.1825C208.101 41.3549 208.073 41.2132 208.142 41.4664C208.239 41.8204 208.458 42.1697 208.592 42.5143C208.731 42.8693 208.856 43.2292 208.97 43.5926C209.202 44.3285 209.398 45.0778 209.521 45.8399C209.756 47.3031 209.715 48.8622 209.023 50.2052C208.727 50.7796 208.302 51.2835 207.787 51.6755C207.535 51.8672 207.262 52.0325 206.976 52.1683C206.829 52.2382 206.641 52.2681 206.574 52.4104C206.501 52.5634 206.609 52.8673 206.633 53.0384C206.846 54.5266 206.953 56.0892 206.51 57.5477C206.103 58.891 205.206 60.077 204.041 60.8623C201.781 62.3855 198.735 62.2996 196.361 61.0802C195.742 60.7622 195.163 60.3676 194.647 59.902C193.331 61.6725 190.625 61.6165 188.703 61.112C186.308 60.4835 184.386 58.8183 183.279 56.6304C181.765 58.4733 178.588 57.8754 177.538 55.8761C177.281 55.3867 177.129 54.8474 177.054 54.3017C177.014 54.0147 177.039 53.7252 177.01 53.4405C176.972 53.0778 176.73 52.7253 176.59 52.3743C176.319 51.6913 176.151 50.9858 176.143 50.2491C176.14 49.8644 176.188 49.4896 176.225 49.108C176.258 48.7646 176.163 48.4446 176.108 48.1056C176.723 48.2067 177.471 48.0411 178.05 47.863C178.617 47.6882 179.149 47.2279 179.55 46.8076C180.481 45.8314 181.049 44.5518 181.438 43.2782C182.292 40.483 181.942 37.1293 179.13 35.5952C177.82 34.8806 173.897 34.8829 172.337 35.2361C170.696 35.6075 168.837 39.2267 168.745 39.5669C168.689 39.7774 168.717 40.038 168.524 40.1783C168.099 40.4868 167.398 39.9515 167.084 39.6873C166.543 39.2313 166.157 38.6246 165.823 38.0097C165.095 36.67 164.508 35.2333 164.093 33.7666C163.773 32.6359 163.569 31.4699 163.151 30.368C162.735 29.2715 162.08 28.2915 161.06 27.6704C159.952 26.9947 158.681 26.6388 157.464 26.2142C156.257 25.7933 155.071 25.279 154.136 24.386C153.93 24.1897 153.731 23.981 153.565 23.7499C153.435 23.5674 153.305 23.218 153.106 23.1023C152.797 22.9223 152.345 23.3904 152.077 23.5604C150.757 24.399 149.655 25.5686 148.767 26.8463C147.883 28.1171 147.158 29.3398 146.569 30.7588C146.132 31.8112 145.859 33.159 145.091 34.0214C144.748 34.4065 142.197 34.6395 141.371 34.3033C140.545 33.9671 139.619 33.0941 139.342 32.547C139.058 31.987 138.99 31.3718 139.111 30.7588C139.183 30.3981 139.328 30.0612 139.408 29.707C139.475 29.4094 139.536 29.1282 139.681 28.8555C139.955 28.339 140.424 27.9677 140.99 27.8124C140.401 27.2698 139.914 26.6206 139.576 25.8949C139.226 25.141 138.928 24.2242 138.844 23.3967C138.776 22.7246 138.881 22.0283 139.249 21.4507C139.635 20.8448 140.319 20.4495 140.911 20.0716C140.007 19.3646 139.233 18.5047 138.598 17.5528C137.361 15.7015 136.596 13.3679 137.224 11.1608Z" fill="#191847"/>
<path fill-rule="evenodd" clip-rule="evenodd" d="M253 215H138C129.163 215 122 222.164 122 231V323C122 331.837 129.163 339 138 339H253C261.837 339 269 331.837 269 323V231C269 222.164 261.837 215 253 215ZM237 243C239.209 243 241 244.791 241 247V307C241 309.209 239.209 311 237 311H154C151.791 311 150 309.209 150 307V247C150 244.791 151.791 243 154 243H237Z" fill="#C5CFD6"/>
<path fill-rule="evenodd" clip-rule="evenodd" d="M50.4908 335.66C63.3036 307.302 72.5696 282.609 76.289 269.58C82.6574 247.273 87.5022 227.644 88.7267 220.313C91.6466 202.833 66.2647 201.815 62.9098 210.502C57.8319 223.651 48.9671 266.853 38.3154 332.108L50.4908 335.66ZM199.112 246.664C187.356 242.017 146.188 227.475 126.333 223.362C120.627 222.179 115.097 221.081 109.898 220.089C94.444 217.138 86.4374 245.018 101.321 247.16C138.388 252.495 190.937 258.004 195.434 258.622C201.737 259.488 206.5 249.584 199.112 246.664Z" fill="#B28B67"/>
<path fill-rule="evenodd" clip-rule="evenodd" d="M100.413 212.417L164 180.047V173H156.438C94.9201 188.676 63.4846 198.722 62.1313 203.138C62.1168 203.186 62.1034 203.233 62.0913 203.281C62.0603 203.322 62.0299 203.362 62 203.404C49.8085 220.17 42.5071 302.027 40.1106 308.156L63.4723 311.642C72.4087 278.504 101 255.418 100.241 215.729C100.446 214.565 100.497 213.461 100.413 212.417Z" fill="#2DBB5D"/>
<path fill-rule="evenodd" clip-rule="evenodd" d="M158.717 231.641C164.535 230.476 169.893 229.437 174.477 228.633C204.091 223.438 212.726 207.587 207.62 173H153.058C144.145 175.561 97.826 194.985 73.7934 205.317C57.8874 212.155 62.9015 236.805 71.909 243.22C71.958 243.613 72.1201 243.881 72.4087 244C120.863 264.083 159.195 253.546 172 256.913L177.923 238.229L158.717 231.641Z" fill="#2DBB5D"/>
<path fill-rule="evenodd" clip-rule="evenodd" d="M195.092 243.694C198.267 243.998 200.521 244.475 201.853 245.125C203.474 245.915 205.707 247.339 208.553 249.395C207.636 251.275 199.395 268.173 183.829 300.089C178.831 299.282 176.851 297.375 177.888 294.367C178.925 291.36 179.761 288.849 180.397 286.835L181.385 258.15C181.404 257.598 181.867 257.166 182.419 257.185C182.428 257.185 182.438 257.186 182.447 257.186L186.86 257.464C189.367 255.434 191.021 253.598 191.823 251.955C192.473 250.621 192.833 248.515 192.902 245.637C192.929 244.533 193.845 243.659 194.95 243.686C194.997 243.687 195.045 243.69 195.092 243.694Z" fill="#E4E4E4"/>
<path fill-rule="evenodd" clip-rule="evenodd" d="M56.3219 330.402C57.4406 333.389 58 335.623 58 337.106C58 338.909 57.6996 341.541 57.0988 345C55.0068 345 36.2062 345 0.696945 345C-0.768738 340.155 0.0773382 337.539 3.23518 337.153C6.39301 336.766 9.01628 336.417 11.105 336.106L37.32 324.419C37.8244 324.194 38.4157 324.421 38.6405 324.925C38.6444 324.934 38.6481 324.943 38.6517 324.951L40.3368 329.039C43.2601 330.403 45.6356 331.085 47.4633 331.085C48.9483 331.085 50.999 330.485 53.6155 329.286C54.6196 328.826 55.8067 329.266 56.267 330.27C56.2869 330.314 56.3052 330.358 56.3219 330.402Z" fill="#E4E4E4"/>
<path fill-rule="evenodd" clip-rule="evenodd" d="M105.956 157.123L77.6277 184.758C69.3853 188.274 62.6319 192.156 57.3673 196.404C56.1834 197.832 54.8945 200.569 60.4648 199.344C66.035 198.12 71.9492 197.082 72.9961 198.894C74.043 200.705 70.9582 203.481 72.893 205.852C74.1829 207.433 78.5209 202.405 85.907 190.77L115.364 173.403L105.956 157.123ZM231.692 161.02L210.795 161.102C223.698 202.756 230.664 224.857 231.692 227.406C234.006 233.14 229.109 241.874 227.015 246.567C233.835 249.619 233.109 238.317 241.712 242.32C249.565 245.973 255.538 252.593 264.611 246.995C265.726 246.306 266.949 243.715 263.995 241.69C256.638 236.645 246.035 227.815 244.602 224.909C242.648 220.945 238.345 199.649 231.692 161.02Z" fill="#B28B67"/>
<path fill-rule="evenodd" clip-rule="evenodd" d="M172.305 73.3324L163.658 71.8492C148.77 109.039 122.778 142.831 85.6816 173.225L113.714 207.282C150.806 164.005 173.67 119.355 172.305 73.3324Z" fill="#191847"/>
<path fill-rule="evenodd" clip-rule="evenodd" d="M210 182H133C150.839 138.625 159.759 101.779 159.759 71.4611L182.986 68.0003C201.24 97.3587 206.395 133.505 210 182Z" fill="#DDE3E9"/>
<path fill-rule="evenodd" clip-rule="evenodd" d="M183.478 68.0168C183.475 68.0113 183.471 68.0058 183.468 68.0003H181.952C180.138 68.0628 177.375 68.1754 173.662 68.338L168.05 84.3772C167.456 103.933 163.989 143.342 157.649 202.606H208.124C207.992 206.699 207.773 210.831 207.469 215H245C239.386 151.664 218.885 102.664 183.496 68.0003L183.478 68.0168Z" fill="#2F3676"/>
<path fill-rule="evenodd" clip-rule="evenodd" d="M204.79 150.233C203.353 175.748 199.757 193.337 194 203H208.111C208.729 184.643 207.622 167.054 204.79 150.233Z" fill="black" fill-opacity="0.1"/>
<path fill-rule="evenodd" clip-rule="evenodd" d="M196.889 172L172 160.43V172H196.889Z" fill="white" fill-opacity="0.2"/>
</svg>
